<svg width="170" height="41" viewBox="0 0 170 41" fill="none" xmlns="http://www.w3.org/2000/svg">
<path d="M19 39L1 22.5L19 1L29.5 10.5" stroke="white"/>
<path d="M19 40L28.5 29.5L19 21.5" stroke="white"/>
<path d="M71.0909 16H69.6364C69.4848 15.2121 69.2008 14.4508 68.7841 13.7159C68.3674 12.9735 67.8295 12.3068 67.1705 11.7159C66.5189 11.1174 65.7614 10.6439 64.8977 10.2955C64.0341 9.94697 63.0795 9.77273 62.0341 9.77273C60.5038 9.77273 59.0947 10.1818 57.8068 11C56.5265 11.8106 55.5 13.0038 54.7273 14.5795C53.9621 16.1553 53.5795 18.0833 53.5795 20.3636C53.5795 22.6591 53.9621 24.5947 54.7273 26.1705C55.5 27.7462 56.5265 28.9394 57.8068 29.75C59.0947 30.553 60.5038 30.9545 62.0341 30.9545C63.0795 30.9545 64.0341 30.7841 64.8977 30.4432C65.7614 30.0947 66.5189 29.625 67.1705 29.0341C67.8295 28.4356 68.3674 27.7652 68.7841 27.0227C69.2008 26.2803 69.4848 25.5152 69.6364 24.7273H71.0909C70.9242 25.6667 70.6023 26.5871 70.125 27.4886C69.6553 28.3902 69.0341 29.2083 68.2614 29.9432C67.4962 30.6705 66.5909 31.25 65.5455 31.6818C64.5076 32.1061 63.3371 32.3182 62.0341 32.3182C60.0947 32.3182 58.3864 31.8258 56.9091 30.8409C55.4318 29.8485 54.2727 28.4545 53.4318 26.6591C52.5985 24.8636 52.1818 22.7652 52.1818 20.3636C52.1818 17.9621 52.5985 15.8636 53.4318 14.0682C54.2727 12.2727 55.4318 10.8826 56.9091 9.89773C58.3864 8.9053 60.0947 8.40909 62.0341 8.40909C63.3371 8.40909 64.5076 8.625 65.5455 9.05682C66.5909 9.48106 67.4962 10.0568 68.2614 10.7841C69.0341 11.5038 69.6553 12.3144 70.125 13.2159C70.6023 14.1174 70.9242 15.0455 71.0909 16ZM75.6534 32H74.1534L82.5511 8.72727H84.1875L92.5852 32H91.0852L83.4261 10.5568H83.3125L75.6534 32ZM77.7784 23.2386H88.9602V24.5568H77.7784V23.2386ZM96.9261 32V8.72727H104.097C105.574 8.72727 106.839 9.0303 107.892 9.63636C108.953 10.2424 109.767 11.072 110.335 12.125C110.903 13.178 111.188 14.3788 111.188 15.7273C111.188 17.0606 110.903 18.2538 110.335 19.3068C109.767 20.3598 108.953 21.1932 107.892 21.8068C106.839 22.4129 105.578 22.7159 104.108 22.7159H97.9261V21.3977H104.074C105.271 21.3977 106.294 21.1553 107.142 20.6705C107.991 20.178 108.642 19.5076 109.097 18.6591C109.551 17.803 109.778 16.8258 109.778 15.7273C109.778 14.6212 109.551 13.6402 109.097 12.7841C108.642 11.928 107.987 11.2576 107.131 10.7727C106.282 10.2879 105.259 10.0455 104.062 10.0455H98.3466V32H96.9261ZM134.372 16H132.918C132.766 15.2121 132.482 14.4508 132.065 13.7159C131.649 12.9735 131.111 12.3068 130.452 11.7159C129.8 11.1174 129.043 10.6439 128.179 10.2955C127.315 9.94697 126.361 9.77273 125.315 9.77273C123.785 9.77273 122.376 10.1818 121.088 11C119.808 11.8106 118.781 13.0038 118.009 14.5795C117.243 16.1553 116.861 18.0833 116.861 20.3636C116.861 22.6591 117.243 24.5947 118.009 26.1705C118.781 27.7462 119.808 28.9394 121.088 29.75C122.376 30.553 123.785 30.9545 125.315 30.9545C126.361 30.9545 127.315 30.7841 128.179 30.4432C129.043 30.0947 129.8 29.625 130.452 29.0341C131.111 28.4356 131.649 27.7652 132.065 27.0227C132.482 26.2803 132.766 25.5152 132.918 24.7273H134.372C134.205 25.6667 133.884 26.5871 133.406 27.4886C132.937 28.3902 132.315 29.2083 131.543 29.9432C130.777 30.6705 129.872 31.25 128.827 31.6818C127.789 32.1061 126.618 32.3182 125.315 32.3182C123.376 32.3182 121.668 31.8258 120.19 30.8409C118.713 29.8485 117.554 28.4545 116.713 26.6591C115.88 24.8636 115.463 22.7652 115.463 20.3636C115.463 17.9621 115.88 15.8636 116.713 14.0682C117.554 12.2727 118.713 10.8826 120.19 9.89773C121.668 8.9053 123.376 8.40909 125.315 8.40909C126.618 8.40909 127.789 8.625 128.827 9.05682C129.872 9.48106 130.777 10.0568 131.543 10.7841C132.315 11.5038 132.937 12.3144 133.406 13.2159C133.884 14.1174 134.205 15.0455 134.372 16ZM141.253 8.72727V32H139.832V8.72727H141.253ZM165.773 8.72727V32H164.386L149.545 11.3068H149.409V32H147.989V8.72727H149.386L164.227 29.4432H164.364V8.72727H165.773Z" fill="white"/>
</svg>
