<svg width="35" height="35" viewBox="0 0 35 35" fill="none" xmlns="http://www.w3.org/2000/svg">
<path d="M17.5068 9.63892C13.1592 9.63892 9.65234 13.1458 9.65234 17.4934C9.65234 21.8411 13.1592 25.3479 17.5068 25.3479C21.8545 25.3479 25.3613 21.8411 25.3613 17.4934C25.3613 13.1458 21.8545 9.63892 17.5068 9.63892ZM17.5068 22.5999C14.6973 22.5999 12.4004 20.3098 12.4004 17.4934C12.4004 14.677 14.6904 12.387 17.5068 12.387C20.3232 12.387 22.6133 14.677 22.6133 17.4934C22.6133 20.3098 20.3164 22.5999 17.5068 22.5999ZM27.5146 9.31763C27.5146 10.3362 26.6943 11.1497 25.6826 11.1497C24.6641 11.1497 23.8506 10.3293 23.8506 9.31763C23.8506 8.30591 24.6709 7.4856 25.6826 7.4856C26.6943 7.4856 27.5146 8.30591 27.5146 9.31763ZM32.7168 11.177C32.6006 8.7229 32.04 6.54907 30.2422 4.75806C28.4512 2.96704 26.2773 2.40649 23.8232 2.28345C21.2939 2.13989 13.7129 2.13989 11.1836 2.28345C8.73633 2.39966 6.5625 2.9602 4.76465 4.75122C2.9668 6.54224 2.41309 8.71606 2.29004 11.1702C2.14648 13.6995 2.14648 21.2805 2.29004 23.8098C2.40625 26.2639 2.9668 28.4377 4.76465 30.2288C6.5625 32.0198 8.72949 32.5803 11.1836 32.7034C13.7129 32.8469 21.2939 32.8469 23.8232 32.7034C26.2773 32.5872 28.4512 32.0266 30.2422 30.2288C32.0332 28.4377 32.5938 26.2639 32.7168 23.8098C32.8604 21.2805 32.8604 13.7063 32.7168 11.177ZM29.4492 26.5237C28.916 27.8635 27.8838 28.8958 26.5371 29.4358C24.5205 30.2356 19.7354 30.051 17.5068 30.051C15.2783 30.051 10.4863 30.2288 8.47656 29.4358C7.13672 28.9026 6.10449 27.8704 5.56445 26.5237C4.76465 24.5071 4.94922 19.7219 4.94922 17.4934C4.94922 15.2649 4.77148 10.4729 5.56445 8.46313C6.09766 7.12329 7.12988 6.09106 8.47656 5.55103C10.4932 4.75122 15.2783 4.93579 17.5068 4.93579C19.7354 4.93579 24.5273 4.75806 26.5371 5.55103C27.877 6.08423 28.9092 7.11646 29.4492 8.46313C30.249 10.4797 30.0645 15.2649 30.0645 17.4934C30.0645 19.7219 30.249 24.5139 29.4492 26.5237Z" fill="white"/>
</svg>
