<svg width="34" height="34" viewBox="0 0 34 34" fill="none" xmlns="http://www.w3.org/2000/svg">
<path d="M33.2895 5.31985C32.8985 3.22584 31.7464 1.57666 30.2836 1.01699C27.6321 0 17 0 17 0C17 0 6.36796 0 3.71642 1.01699C2.2536 1.57675 1.10149 3.22584 0.710463 5.31985C0 9.11536 0 17.0344 0 17.0344C0 17.0344 0 24.9533 0.710463 28.7489C1.10149 30.8429 2.2536 32.4233 3.71642 32.983C6.36796 34 17 34 17 34C17 34 27.632 34 30.2836 32.983C31.7464 32.4233 32.8985 30.8429 33.2895 28.7489C34 24.9533 34 17.0344 34 17.0344C34 17.0344 34 9.11536 33.2895 5.31985ZM13.5227 24.2242V9.8445L22.409 17.0345L13.5227 24.2242Z" fill="white"/>
</svg>
