<svg width="60" height="60" viewBox="0 0 60 60" fill="none" xmlns="http://www.w3.org/2000/svg">
<path d="M0 30C0 13.4315 13.4315 0 30 0C46.5685 0 60 13.4315 60 30C60 46.5685 46.5685 60 30 60C13.4315 60 0 46.5685 0 30Z" fill="white"/>
<path fill-rule="evenodd" clip-rule="evenodd" d="M36.5836 12C36.8977 14.1333 36.0294 16.2232 34.884 17.7018C33.6584 19.2879 31.5461 20.5145 29.4995 20.4505C29.1259 18.4081 30.0825 16.3037 31.2464 14.8891C32.5233 13.3279 34.7115 12.1301 36.5836 12ZM42.7317 42.027C43.7868 40.41 44.1809 39.5943 45 37.7687C39.0429 35.5033 38.0883 27.0342 43.9839 23.7836C42.1857 21.5285 39.6587 20.2213 37.2734 20.2213C35.5547 20.2213 34.3771 20.6698 33.3065 21.0776C32.4143 21.4174 31.5965 21.7288 30.6019 21.7288C29.527 21.7288 28.5752 21.3876 27.5785 21.0302C26.4833 20.6375 25.334 20.2254 23.9078 20.2254C21.231 20.2254 18.3817 21.861 16.5753 24.6572C14.036 28.5954 14.4692 35.9989 18.587 42.3058C20.0589 44.563 22.0254 47.099 24.5975 47.1217C25.6648 47.1323 26.375 46.8138 27.1435 46.469C28.0232 46.0745 28.9793 45.6457 30.6347 45.6369C32.2999 45.6269 33.2409 46.0609 34.1089 46.4613C34.8577 46.8067 35.5522 47.127 36.6103 47.1155C39.1845 47.0948 41.2599 44.2842 42.7317 42.027Z" fill="#0B0B0A"/>
</svg>
