<svg width="98" height="70" viewBox="0 0 98 70" fill="none" xmlns="http://www.w3.org/2000/svg">
<path d="M47.25 0C41.2271 0 35.9538 2.67983 32.6667 7.2096C29.3796 2.67983 24.1063 0 18.0833 0C13.289 0.00559125 8.69257 1.97867 5.30246 5.48637C1.91234 8.99407 0.00540382 13.7499 0 18.7105C0 39.8354 30.2721 56.9344 31.5613 57.6406C31.901 57.8297 32.2808 57.9287 32.6667 57.9287C33.0525 57.9287 33.4323 57.8297 33.7721 57.6406C35.0613 56.9344 65.3334 39.8354 65.3334 18.7105C65.3279 13.7499 63.421 8.99407 60.0309 5.48637C56.6408 1.97867 52.0444 0.00559125 47.25 0ZM32.6667 52.7517C27.3408 49.5407 4.66667 34.9133 4.66667 18.7105C4.6713 15.0303 6.08632 11.5021 8.60143 8.89977C11.1165 6.29742 14.5264 4.83332 18.0833 4.82853C23.7563 4.82853 28.5192 7.955 30.5083 12.9767C30.6841 13.4195 30.9832 13.7982 31.3675 14.0647C31.7518 14.3313 32.204 14.4736 32.6667 14.4736C33.1293 14.4736 33.5815 14.3313 33.9659 14.0647C34.3502 13.7982 34.6492 13.4195 34.825 12.9767C36.8142 7.94595 41.5771 4.82853 47.25 4.82853C50.8069 4.83332 54.2168 6.29742 56.7319 8.89977C59.247 11.5021 60.6621 15.0303 60.6667 18.7105C60.6667 34.8891 37.9867 49.5377 32.6667 52.7517Z" fill="#006BA1"/>
<path d="M79.9166 12.0713C73.8937 12.0713 68.6204 14.7511 65.3333 19.2809C62.0462 14.7511 56.7729 12.0713 50.75 12.0713C45.9556 12.0769 41.3592 14.05 37.9691 17.5577C34.579 21.0654 32.672 25.8212 32.6666 30.7818C32.6666 51.9066 62.9387 69.0057 64.2279 69.7118C64.5677 69.901 64.9475 70 65.3333 70C65.7191 70 66.0989 69.901 66.4387 69.7118C67.7279 69.0057 98 51.9066 98 30.7818C97.9946 25.8212 96.0876 21.0654 92.6975 17.5577C89.3074 14.05 84.711 12.0769 79.9166 12.0713ZM65.3333 64.823C60.0075 61.612 37.3333 46.9846 37.3333 30.7818C37.3379 27.1016 38.7529 23.5734 41.2681 20.9711C43.7832 18.3687 47.1931 16.9046 50.75 16.8998C56.4229 16.8998 61.1858 20.0263 63.175 25.048C63.3508 25.4908 63.6498 25.8695 64.0341 26.136C64.4184 26.4026 64.8706 26.5449 65.3333 26.5449C65.796 26.5449 66.2482 26.4026 66.6325 26.136C67.0168 25.8695 67.3158 25.4908 67.4916 25.048C69.4808 20.0172 74.2437 16.8998 79.9166 16.8998C83.4735 16.9046 86.8834 18.3687 89.3985 20.9711C91.9137 23.5734 93.3287 27.1016 93.3333 30.7818C93.3333 46.9604 70.6533 61.609 65.3333 64.823Z" fill="#00A9FF"/>
</svg>
