<svg width="71" height="70" viewBox="0 0 71 70" fill="none" xmlns="http://www.w3.org/2000/svg">
<path d="M62.6918 15.4248L36.4418 6.67477C35.9927 6.52508 35.5073 6.52508 35.0582 6.67477L8.8082 15.4248C8.37263 15.57 7.99379 15.8485 7.72535 16.221C7.4569 16.5935 7.31247 17.041 7.3125 17.5002V39.3752C7.3125 39.9553 7.54297 40.5117 7.9532 40.922C8.36344 41.3322 8.91984 41.5627 9.5 41.5627C10.0802 41.5627 10.6366 41.3322 11.0468 40.922C11.457 40.5117 11.6875 39.9553 11.6875 39.3752V20.5353L20.8723 23.5951C18.432 27.5375 17.656 32.2872 18.7147 36.8013C19.7733 41.3154 22.5801 45.2248 26.5187 47.6713C21.5969 49.6017 17.3422 53.0935 14.2305 57.8677C14.0686 58.1083 13.9562 58.3786 13.8998 58.6629C13.8433 58.9473 13.844 59.24 13.9016 59.5241C13.9593 59.8082 14.0729 60.078 14.2358 60.3178C14.3986 60.5577 14.6075 60.7627 14.8504 60.9211C15.0932 61.0795 15.365 61.188 15.6502 61.2404C15.9353 61.2928 16.228 61.2879 16.5113 61.2262C16.7945 61.1645 17.0627 61.047 17.3001 60.8808C17.5376 60.7145 17.7396 60.5026 17.8945 60.2576C22.0152 53.9357 28.523 50.3127 35.75 50.3127C42.977 50.3127 49.4848 53.9357 53.6055 60.2576C53.9263 60.7344 54.4219 61.0659 54.9852 61.1802C55.5484 61.2946 56.1341 61.1827 56.6154 60.8687C57.0968 60.5547 57.4353 60.0639 57.5577 59.5023C57.6801 58.9407 57.5766 58.3536 57.2695 57.8677C54.1578 53.0935 49.8867 49.6017 44.9812 47.6713C48.9161 45.2249 51.7202 41.318 52.7787 36.8073C53.8372 32.2965 53.0637 27.55 50.6277 23.6088L62.6918 19.5892C63.1275 19.4441 63.5064 19.1656 63.7749 18.7931C64.0435 18.4206 64.188 17.973 64.188 17.5138C64.188 17.0546 64.0435 16.6071 63.7749 16.2346C63.5064 15.8621 63.1275 15.5836 62.6918 15.4384V15.4248ZM48.875 32.8127C48.8756 34.8877 48.3842 36.9332 47.4411 38.7815C46.4981 40.6298 45.1302 42.2282 43.4498 43.4455C41.7694 44.6628 39.8243 45.4644 37.7741 45.7844C35.724 46.1044 33.6271 45.9337 31.6557 45.2864C29.6842 44.6391 27.8943 43.5336 26.4329 42.0607C24.9714 40.5877 23.88 38.7892 23.2482 36.8127C22.6164 34.8362 22.4622 32.7381 22.7983 30.6905C23.1344 28.6429 23.9512 26.7042 25.1816 25.0334L35.0582 28.3146C35.5073 28.4643 35.9927 28.4643 36.4418 28.3146L46.3184 25.0334C47.9803 27.2865 48.8763 30.0129 48.875 32.8127ZM35.75 23.9451L16.418 17.5002L35.75 11.0552L55.082 17.5002L35.75 23.9451Z" fill="#006BA1"/>
</svg>
