<svg width="70" height="70" viewBox="0 0 70 70" fill="none" xmlns="http://www.w3.org/2000/svg">
<path d="M25.1563 38.2812C24.5073 38.2812 23.8729 38.0888 23.3333 37.7283C22.7937 37.3677 22.3731 36.8552 22.1248 36.2557C21.8764 35.6561 21.8115 34.9964 21.9381 34.3599C22.0647 33.7234 22.3772 33.1387 22.8361 32.6798C23.295 32.2209 23.8796 31.9084 24.5161 31.7818C25.1526 31.6552 25.8124 31.7202 26.4119 31.9685C27.0115 32.2169 27.524 32.6374 27.8845 33.177C28.2451 33.7166 28.4375 34.351 28.4375 35C28.4375 35.8702 28.0918 36.7048 27.4765 37.3202C26.8611 37.9355 26.0265 38.2812 25.1563 38.2812ZM44.8438 31.7188C44.1948 31.7188 43.5604 31.9112 43.0208 32.2717C42.4812 32.6323 42.0606 33.1448 41.8123 33.7443C41.5639 34.3439 41.499 35.0036 41.6256 35.6401C41.7522 36.2766 42.0647 36.8613 42.5236 37.3202C42.9825 37.7791 43.5671 38.0916 44.2036 38.2182C44.8401 38.3448 45.4999 38.2798 46.0994 38.0315C46.699 37.7831 47.2115 37.3626 47.572 36.823C47.9326 36.2834 48.125 35.649 48.125 35C48.125 34.1298 47.7793 33.2952 47.164 32.6798C46.5486 32.0645 45.714 31.7188 44.8438 31.7188ZM41.4887 44.0863C39.5404 45.2955 37.293 45.9362 35 45.9362C32.707 45.9362 30.4596 45.2955 28.5113 44.0863C28.0204 43.7767 27.4265 43.6747 26.8604 43.8029C26.2943 43.9311 25.8023 44.279 25.4926 44.7699C25.1829 45.2609 25.081 45.8547 25.2092 46.4209C25.3374 46.987 25.6852 47.479 26.1762 47.7887C28.8235 49.439 31.8805 50.3138 35 50.3138C38.1195 50.3138 41.1766 49.439 43.8238 47.7887C44.3148 47.479 44.6626 46.987 44.7908 46.4209C44.919 45.8547 44.8171 45.2609 44.5074 44.7699C44.1978 44.279 43.7058 43.9311 43.1396 43.8029C42.5735 43.6747 41.9796 43.7767 41.4887 44.0863ZM63.4375 35C63.4375 40.6244 61.7697 46.1225 58.6449 50.799C55.5202 55.4755 51.0788 59.1205 45.8826 61.2728C40.6863 63.4252 34.9685 63.9883 29.4521 62.8911C23.9358 61.7938 18.8687 59.0854 14.8917 55.1083C10.9146 51.1313 8.2062 46.0642 7.10893 40.5479C6.01166 35.0315 6.57482 29.3137 8.72719 24.1174C10.8796 18.9212 14.5245 14.4798 19.201 11.3551C23.8775 8.23033 29.3756 6.5625 35 6.5625C42.5397 6.57046 49.7682 9.5691 55.0996 14.9004C60.4309 20.2318 63.4296 27.4604 63.4375 35ZM59.0625 35C59.0549 28.8057 56.6618 22.8523 52.38 18.376C48.0983 13.8998 42.257 11.2447 36.0692 10.9621C32.9 15.4164 32.8125 19.6547 32.8125 19.6875C32.8125 20.2677 33.043 20.8241 33.4532 21.2343C33.8635 21.6445 34.4199 21.875 35 21.875C35.5802 21.875 36.1366 21.6445 36.5468 21.2343C36.957 20.8241 37.1875 20.2677 37.1875 19.6875C37.1875 19.1073 37.418 18.5509 37.8282 18.1407C38.2385 17.7305 38.7949 17.5 39.375 17.5C39.9552 17.5 40.5116 17.7305 40.9218 18.1407C41.332 18.5509 41.5625 19.1073 41.5625 19.6875C41.5625 21.428 40.8711 23.0972 39.6404 24.3279C38.4097 25.5586 36.7405 26.25 35 26.25C33.2595 26.25 31.5903 25.5586 30.3596 24.3279C29.1289 23.0972 28.4375 21.428 28.4375 19.6875C28.4375 19.4879 28.4731 15.7773 30.7508 11.3121C26.2455 12.1204 22.0642 14.1969 18.6976 17.298C15.331 20.3991 12.9187 24.396 11.7437 28.8199C10.5688 33.2437 10.68 37.9109 12.0644 42.2738C13.4487 46.6366 16.0486 50.5142 19.5591 53.4514C23.0697 56.3885 27.3451 58.2635 31.8838 58.8563C36.4224 59.4491 41.036 58.7351 45.1831 56.798C49.3303 54.861 52.8389 51.7812 55.2973 47.9203C57.7557 44.0593 59.0618 39.5772 59.0625 35Z" fill="#006BA1"/>
</svg>
