<svg width="71" height="70" viewBox="0 0 71 70" fill="none" xmlns="http://www.w3.org/2000/svg">
<g clip-path="url(#clip0_129_228)">
<path d="M70.25 37.1877C70.25 37.7679 70.0196 38.3243 69.6093 38.7345C69.1991 39.1447 68.6427 39.3752 68.0625 39.3752H63.6875V43.7502C63.6875 44.3304 63.4571 44.8868 63.0468 45.297C62.6366 45.7072 62.0802 45.9377 61.5 45.9377C60.9199 45.9377 60.3635 45.7072 59.9532 45.297C59.543 44.8868 59.3125 44.3304 59.3125 43.7502V39.3752H54.9375C54.3574 39.3752 53.801 39.1447 53.3907 38.7345C52.9805 38.3243 52.75 37.7679 52.75 37.1877C52.75 36.6075 52.9805 36.0511 53.3907 35.6409C53.801 35.2307 54.3574 35.0002 54.9375 35.0002H59.3125V30.6252C59.3125 30.045 59.543 29.4886 59.9532 29.0784C60.3635 28.6682 60.9199 28.4377 61.5 28.4377C62.0802 28.4377 62.6366 28.6682 63.0468 29.0784C63.4571 29.4886 63.6875 30.045 63.6875 30.6252V35.0002H68.0625C68.6427 35.0002 69.1991 35.2307 69.6093 35.6409C70.0196 36.0511 70.25 36.6075 70.25 37.1877ZM54.4262 53.2795C54.7997 53.724 54.9813 54.2987 54.931 54.8772C54.8808 55.4556 54.6028 55.9904 54.1582 56.3639C53.7137 56.7373 53.139 56.9189 52.5605 56.8687C51.9821 56.8184 51.4473 56.5404 51.0738 56.0959C45.5723 49.5443 38.009 45.9377 29.7813 45.9377C21.5535 45.9377 13.9903 49.5443 8.48869 56.0959C8.11522 56.5401 7.58058 56.8177 7.00241 56.8677C6.42423 56.9177 5.84987 56.736 5.40569 56.3625C4.9615 55.989 4.68387 55.4544 4.63387 54.8762C4.58388 54.298 4.76561 53.7237 5.13908 53.2795C9.22424 48.4178 14.3047 44.9643 19.9512 43.1158C16.522 40.98 13.8818 37.7855 12.4298 34.0155C10.9779 30.2455 10.7934 26.1052 11.9041 22.221C13.0148 18.3367 15.3603 14.9199 18.5858 12.4875C21.8114 10.055 25.7414 8.73926 29.7813 8.73926C33.8212 8.73926 37.7512 10.055 40.9767 12.4875C44.2022 14.9199 46.5478 18.3367 47.6585 22.221C48.7692 26.1052 48.5846 30.2455 47.1327 34.0155C45.6808 37.7855 43.0405 40.98 39.6114 43.1158C45.2578 44.9643 50.3383 48.4178 54.4262 53.2795ZM29.7813 41.5627C32.5935 41.5627 35.3425 40.7288 37.6808 39.1664C40.019 37.604 41.8415 35.3834 42.9177 32.7852C43.9939 30.1871 44.2754 27.3282 43.7268 24.57C43.1782 21.8118 41.824 19.2783 39.8354 17.2898C37.8469 15.3012 35.3134 13.947 32.5552 13.3984C29.797 12.8498 26.9381 13.1313 24.34 14.2075C21.7419 15.2837 19.5212 17.1062 17.9588 19.4444C16.3964 21.7827 15.5625 24.5317 15.5625 27.3439C15.5669 31.1137 17.0663 34.7277 19.7319 37.3933C22.3975 40.0589 26.0116 41.5583 29.7813 41.5627Z" fill="#006BA1"/>
</g>
<defs>
<clipPath id="clip0_129_228">
<rect width="70" height="70" fill="white" transform="translate(0.25)"/>
</clipPath>
</defs>
</svg>
