<svg width="71" height="70" viewBox="0 0 71 70" fill="none" xmlns="http://www.w3.org/2000/svg">
<path d="M63.9375 56.875C63.9375 57.4552 63.707 58.0116 63.2968 58.4218C62.8866 58.832 62.3302 59.0625 61.75 59.0625H9.25C8.66984 59.0625 8.11344 58.832 7.7032 58.4218C7.29297 58.0116 7.0625 57.4552 7.0625 56.875V13.125C7.0625 12.5448 7.29297 11.9884 7.7032 11.5782C8.11344 11.168 8.66984 10.9375 9.25 10.9375C9.83016 10.9375 10.3866 11.168 10.7968 11.5782C11.207 11.9884 11.4375 12.5448 11.4375 13.125V42.8449L25.2023 29.0773C25.4055 28.874 25.6468 28.7126 25.9123 28.6025C26.1779 28.4924 26.4625 28.4358 26.75 28.4358C27.0375 28.4358 27.3221 28.4924 27.5877 28.6025C27.8532 28.7126 28.0945 28.874 28.2977 29.0773L35.5 36.2824L49.9074 21.875H44.25C43.6698 21.875 43.1134 21.6445 42.7032 21.2343C42.293 20.8241 42.0625 20.2677 42.0625 19.6875C42.0625 19.1073 42.293 18.5509 42.7032 18.1407C43.1134 17.7305 43.6698 17.5 44.25 17.5H55.1875C55.7677 17.5 56.3241 17.7305 56.7343 18.1407C57.1445 18.5509 57.375 19.1073 57.375 19.6875V30.625C57.375 31.2052 57.1445 31.7616 56.7343 32.1718C56.3241 32.582 55.7677 32.8125 55.1875 32.8125C54.6073 32.8125 54.0509 32.582 53.6407 32.1718C53.2305 31.7616 53 31.2052 53 30.625V24.9676L37.0477 40.9227C36.8445 41.126 36.6032 41.2874 36.3377 41.3975C36.0721 41.5076 35.7875 41.5642 35.5 41.5642C35.2125 41.5642 34.9279 41.5076 34.6623 41.3975C34.3968 41.2874 34.1555 41.126 33.9523 40.9227L26.75 33.7176L11.4375 49.0301V54.6875H61.75C62.3302 54.6875 62.8866 54.918 63.2968 55.3282C63.707 55.7384 63.9375 56.2948 63.9375 56.875Z" fill="#006BA2"/>
</svg>
