<svg width="48" height="48" viewBox="0 0 48 48" fill="none" xmlns="http://www.w3.org/2000/svg">
<path d="M3.27273 42.0085H10.9091V23.4631L0 15.2812V38.7358C0 40.544 1.46455 42.0085 3.27273 42.0085Z" fill="#4285F4"/>
<path d="M37.0908 42.0085H44.7272C46.5354 42.0085 47.9999 40.544 47.9999 38.7358V15.2812L37.0908 23.4631V42.0085Z" fill="#34A853"/>
<path d="M37.0908 9.28155V23.4634L47.9999 15.2815V10.9179C47.9999 6.87336 43.3826 4.56336 40.1454 6.99064L37.0908 9.28155Z" fill="#FBBC04"/>
<path fill-rule="evenodd" clip-rule="evenodd" d="M10.9092 23.4631V9.28125L24.0001 19.0994L37.091 9.28125V23.4631L24.0001 33.2812L10.9092 23.4631Z" fill="#EA4335"/>
<path d="M0 10.9179V15.2815L10.9091 23.4634V9.28155L7.85455 6.99064C4.61727 4.56336 0 6.87336 0 10.9179Z" fill="#C5221F"/>
</svg>
