<svg width="36" height="36" viewBox="0 0 36 36" fill="none" xmlns="http://www.w3.org/2000/svg">
<g clip-path="url(#clip0_128_145)">
<path d="M33.5769 0.241211H7.09615C5.44365 0.241211 3.85883 0.816911 2.69033 1.84166C1.52184 2.86642 0.865385 4.25628 0.865385 5.7055V34.393C0.865385 34.7553 1.0295 35.1028 1.32162 35.359C1.61375 35.6151 2.00995 35.7591 2.42308 35.7591H30.4615C30.8747 35.7591 31.2709 35.6151 31.563 35.359C31.8551 35.1028 32.0192 34.7553 32.0192 34.393C32.0192 34.0307 31.8551 33.6832 31.563 33.427C31.2709 33.1708 30.8747 33.0269 30.4615 33.0269H3.98077C3.98077 32.3023 4.309 31.6074 4.89324 31.095C5.47749 30.5826 6.2699 30.2948 7.09615 30.2948H33.5769C33.99 30.2948 34.3863 30.1509 34.6784 29.8947C34.9705 29.6385 35.1346 29.291 35.1346 28.9287V1.60728C35.1346 1.24498 34.9705 0.897512 34.6784 0.641324C34.3863 0.385136 33.99 0.241211 33.5769 0.241211ZM28.9038 16.6341L23.9173 13.3555C23.7825 13.2668 23.6185 13.2189 23.45 13.2189C23.2815 13.2189 23.1175 13.2668 22.9827 13.3555L18 16.6341V2.97335H28.9038V16.6341Z" fill="#006BA1"/>
</g>
<defs>
<clipPath id="clip0_128_145">
<rect width="36" height="36" fill="white"/>
</clipPath>
</defs>
</svg>
