<svg width="33" height="32" viewBox="0 0 33 32" fill="none" xmlns="http://www.w3.org/2000/svg">
<path d="M15.7867 1.00431C16.0112 0.313322 16.9888 0.313324 17.2133 1.0043L20.4157 10.8604C20.5831 11.3755 21.063 11.7242 21.6046 11.7242H31.9679C32.6945 11.7242 32.9965 12.6539 32.4088 13.0809L24.0246 19.1724C23.5865 19.4907 23.4032 20.0549 23.5705 20.5699L26.773 30.426C26.9975 31.117 26.2066 31.6916 25.6189 31.2646L17.2347 25.1731C16.7966 24.8548 16.2034 24.8548 15.7653 25.1731L7.38114 31.2646C6.79336 31.6916 6.00249 31.117 6.22701 30.426L9.42946 20.5699C9.5968 20.0549 9.41348 19.4907 8.97537 19.1724L0.591243 13.0809C0.00345707 12.6539 0.30554 11.7242 1.03208 11.7242H11.3954C11.937 11.7242 12.4169 11.3755 12.5843 10.8604L15.7867 1.00431Z" fill="white" stroke="black" stroke-width="0.5"/>
</svg>
